<?xml version="1.0" encoding="UTF-8" standalone="no"?>
<!-- Created with Inkscape (http://www.inkscape.org/) -->

<svg
   xmlns:dc="http://purl.org/dc/elements/1.1/"
   xmlns:cc="http://creativecommons.org/ns#"
   xmlns:rdf="http://www.w3.org/1999/02/22-rdf-syntax-ns#"
   xmlns:svg="http://www.w3.org/2000/svg"
   xmlns="http://www.w3.org/2000/svg"
   xmlns:sodipodi="http://sodipodi.sourceforge.net/DTD/sodipodi-0.dtd"
   xmlns:inkscape="http://www.inkscape.org/namespaces/inkscape"
   version="1.1"
   width="50.000072"
   height="350.00061"
   id="svg2"
   inkscape:version="0.92.4 (5da689c313, 2019-01-14)"
   sodipodi:docname="buttons.svg">
  <sodipodi:namedview
     pagecolor="#ffffff"
     bordercolor="#666666"
     borderopacity="1"
     objecttolerance="10"
     gridtolerance="10"
     guidetolerance="10"
     inkscape:pageopacity="0"
     inkscape:pageshadow="2"
     inkscape:window-width="1920"
     inkscape:window-height="1017"
     id="namedview41"
     showgrid="false"
     inkscape:object-nodes="true"
     fit-margin-top="0"
     fit-margin-left="0"
     fit-margin-right="0"
     fit-margin-bottom="0"
     inkscape:zoom="1.9071647"
     inkscape:cx="-134.35055"
     inkscape:cy="133.53168"
     inkscape:window-x="3832"
     inkscape:window-y="515"
     inkscape:window-maximized="1"
     inkscape:current-layer="previousPage" />
  <defs
     id="defs4" />
  <metadata
     id="metadata7">
    <rdf:RDF>
      <cc:Work
         rdf:about="">
        <dc:format>image/svg+xml</dc:format>
        <dc:type
           rdf:resource="http://purl.org/dc/dcmitype/StillImage" />
        <dc:title></dc:title>
      </cc:Work>
    </rdf:RDF>
  </metadata>
  <g
     id="previousPage"
     transform="translate(-680.27394,-411.68824)">
    <path
       inkscape:connector-curvature="0"
       style="color:#000000;display:inline;overflow:visible;visibility:visible;fill:#e0ecec;fill-opacity:1;fill-rule:nonzero;stroke:none;stroke-width:1;marker:none;enable-background:accumulate"
       id="path3010"
       transform="matrix(1.3749299,0,0,1.3749299,1961.1768,-177.486)"
       d="m -895.24767,446.69495 a 18.182745,18.182745 0 1 1 -36.36549,0 18.182745,18.182745 0 1 1 36.36549,0 z" />
    <path
       inkscape:connector-curvature="0"
       style="color:#000000;display:inline;overflow:visible;visibility:visible;fill:#434e52;fill-opacity:1;fill-rule:nonzero;stroke:none;stroke-width:1;marker:none;enable-background:accumulate"
       id="rect3012"
       d="m 710.36367,423.76859 -10.17912,10.17911 -2.7406,2.74053 2.7406,2.74053 10.17912,10.17912 2.74046,-2.69704 -10.17897,-10.22261 10.17897,-10.17911 z" />
  </g>
  <g
     id="nextPage"
     transform="matrix(-1,0,0,1,730.27401,-368.76166)">
    <path
       inkscape:connector-curvature="0"
       style="color:#000000;display:inline;overflow:visible;visibility:visible;fill:#e0ecec;fill-opacity:1;fill-rule:nonzero;stroke:none;stroke-width:1;marker:none;enable-background:accumulate"
       id="path3789"
       transform="matrix(1.3749299,0,0,1.3749299,1961.1768,-120.41238)"
       d="m -895.24767,446.69495 a 18.182745,18.182745 0 1 1 -36.36549,0 18.182745,18.182745 0 1 1 36.36549,0 z" />
    <path
       inkscape:connector-curvature="0"
       style="color:#000000;display:inline;overflow:visible;visibility:visible;fill:#434e52;fill-opacity:1;fill-rule:nonzero;stroke:none;stroke-width:1;marker:none;enable-background:accumulate"
       id="path3791"
       d="m 710.36367,480.84221 -10.17912,10.17911 -2.7406,2.74053 2.7406,2.74053 10.17912,10.17912 2.74046,-2.69704 -10.17897,-10.22261 10.17897,-10.17911 z" />
  </g>
  <g
     id="fullScreen"
     transform="translate(-767.49983,-252.75131)">
    <path
       d="m 767.49989,477.75171 a 25,25 0 1 0 50,0 25,25 0 1 0 -50,0 z"
       id="path3803"
       style="color:#000000;display:inline;overflow:visible;visibility:visible;fill:#e0ecec;fill-opacity:1;fill-rule:nonzero;stroke:none;stroke-width:1.3749299;marker:none;enable-background:accumulate"
       inkscape:connector-curvature="0" />
    <path
       id="path3822"
       style="color:#000000;display:inline;overflow:visible;visibility:visible;fill:#434e52;fill-opacity:1;fill-rule:nonzero;stroke:none;stroke-width:1;marker:none;enable-background:accumulate"
       d="m 807.49994,492.75171 v -4 -8 l -4,4 -4,-4 -4,4 4,4 -4,4 h 8 z m -30,0 v -4 -8 l 4,4 4,-4 4,4 -4,4 4,4 h -8 z m 30,-30 v 4 8 l -4,-4 -4,4 -4,-4 4,-4 -4,-4 h 8 z m -30,0 v 4 8 l 4,-4 4,4 4,-4 -4,-4 4,-4 h -8 z"
       inkscape:connector-curvature="0" />
  </g>
  <g
     id="restore"
     transform="translate(-676.73843,-311.19022)">
    <path
       d="m 676.73849,636.19082 a 25,25 0 1 0 50,0 25,25 0 1 0 -50,0 z"
       id="path3836"
       style="color:#000000;display:inline;overflow:visible;visibility:visible;fill:#e0ecec;fill-opacity:1;fill-rule:nonzero;stroke:none;stroke-width:1.3749299;marker:none;enable-background:accumulate"
       inkscape:connector-curvature="0" />
    <path
       id="path3844"
       style="color:#000000;display:inline;overflow:visible;visibility:visible;fill:#434e52;fill-opacity:1;fill-rule:nonzero;stroke:none;stroke-width:1;marker:none;enable-background:accumulate"
       d="m 704.73851,639.19082 v 4 8 l 4,-4 4,4 4,-4 -4,-4 4,-4 h -8 z m -6,0 v 4 8 l -4,-4 -4,4 -4,-4 4,-4 -4,-4 h 8 z m 6,-6 v -4 -8 l 4,4 4,-4 4,4 -4,4 4,4 h -8 z m -6,0 v -4 -8 l -4,4 -4,-4 -4,4 4,4 -4,4 h 8 z"
       inkscape:connector-curvature="0" />
  </g>
</svg>
