<?xml version="1.0" encoding="UTF-8" standalone="no"?>
<!-- Created with Inkscape (http://www.inkscape.org/) -->

<svg
   xmlns:dc="http://purl.org/dc/elements/1.1/"
   xmlns:cc="http://creativecommons.org/ns#"
   xmlns:rdf="http://www.w3.org/1999/02/22-rdf-syntax-ns#"
   xmlns:svg="http://www.w3.org/2000/svg"
   xmlns="http://www.w3.org/2000/svg"
   xmlns:sodipodi="http://sodipodi.sourceforge.net/DTD/sodipodi-0.dtd"
   xmlns:inkscape="http://www.inkscape.org/namespaces/inkscape"
   version="1.1"
   width="300.36746"
   height="60.000198"
   id="svg2"
   inkscape:version="0.92.4 (5da689c313, 2019-01-14)"
   sodipodi:docname="menu-scroller.svg">
  <sodipodi:namedview
     pagecolor="#ffffff"
     bordercolor="#666666"
     borderopacity="1"
     objecttolerance="10"
     gridtolerance="10"
     guidetolerance="10"
     inkscape:pageopacity="0"
     inkscape:pageshadow="2"
     inkscape:window-width="1920"
     inkscape:window-height="1017"
     id="namedview41"
     showgrid="false"
     inkscape:object-nodes="true"
     fit-margin-top="0"
     fit-margin-left="0"
     fit-margin-right="0"
     fit-margin-bottom="0"
     inkscape:zoom="2.7213773"
     inkscape:cx="86.569168"
     inkscape:cy="64.677649"
     inkscape:window-x="3832"
     inkscape:window-y="515"
     inkscape:window-maximized="1"
     inkscape:current-layer="svg2" />
  <defs
     id="defs4" />
  <metadata
     id="metadata7">
    <rdf:RDF>
      <cc:Work
         rdf:about="">
        <dc:format>image/svg+xml</dc:format>
        <dc:type
           rdf:resource="http://purl.org/dc/dcmitype/StillImage" />
        <dc:title></dc:title>
      </cc:Work>
    </rdf:RDF>
  </metadata>
  <path
     style="color:#000000;display:inline;overflow:visible;visibility:visible;fill:#727d80;fill-opacity:1;fill-rule:nonzero;stroke:none;stroke-width:1;marker:none;enable-background:accumulate"
     d="M 2.4941406 0 C 1.1127949 0 0 4.46 0 10 C 0 15.54 1.1127949 20 2.4941406 20 L 297.50586 20 C 298.88721 20 300 15.54 300 10 C 300 4.46 298.88721 0 297.50586 0 L 2.4941406 0 z M 150 4.21875 L 187.80664 15.78125 L 112.19336 15.78125 L 150 4.21875 z "
     id="rect3022" />
  <path
     style="color:#000000;display:inline;overflow:visible;visibility:visible;fill:#727d80;fill-opacity:1;fill-rule:nonzero;stroke:none;stroke-width:1;marker:none;enable-background:accumulate"
     d="M 2.8613281 40 C 1.4799824 40 0.3671875 44.46 0.3671875 50 C 0.3671875 55.54 1.4799824 60 2.8613281 60 L 297.875 60 C 299.25635 60 300.36719 55.54 300.36719 50 C 300.36719 44.46 299.25635 40 297.875 40 L 2.8613281 40 z M 112.5625 44.21875 L 188.17383 44.21875 L 150.36719 55.78125 L 112.5625 44.21875 z "
     id="rect3836" />
</svg>
